<svg xmlns="http://www.w3.org/2000/svg" viewBox="0 0 714 713" width="714" height="713">
	<style>
		tspan { white-space:pre }
		.shp0 { fill: #221436 } 
	</style>
	<path id="Layer" fill-rule="evenodd" class="shp0" d="M106.17 395.68L8 355.14C4.64 353.85 2.01 351.18 0.77 347.81C-0.47 344.45 -0.2 340.7 1.51 337.55L34.56 278.05C37.32 273.18 42.97 270.73 48.41 272.07L181.01 305.75L260.09 268.33L122 173.41C118.75 171.15 116.77 167.5 116.64 163.55C116.35 147.98 123.2 133.14 135.23 123.26C149.57 112.91 170.03 112.66 195.85 122.38L400.91 202.59L591.64 113.16C612.75 102.82 636.5 99.16 659.75 102.67C680.66 105.18 698.96 117.95 708.52 136.73C725.36 172.65 700.29 218.68 651.64 241.38L486.36 318.47L402.91 565.57C393.81 591.77 380.46 607.11 363.25 611.61C360.02 612.43 356.72 612.84 353.39 612.85C341.34 612.45 329.75 608.07 320.46 600.38C317.5 597.73 315.98 593.85 316.35 589.89L335.55 389.07L123.5 488.12C121.86 488.86 120.07 489.25 118.26 489.23C116.82 489.23 115.38 488.98 114.02 488.49C110.93 487.34 108.41 485 107.04 482L78.97 421.75C76.23 415.55 78.94 408.29 85.09 405.41L106.17 395.68ZM141.59 383.71C146.11 385.7 149.03 390.18 149.03 395.12C149.03 400.06 146.11 404.54 141.59 406.54L106.42 423L124 460.42L338.05 360.63L341.91 320.59C342.57 313.7 348.68 308.64 355.57 309.3C362.46 309.96 367.52 316.07 366.86 322.96L341.91 584.91C346.44 587.75 351.88 588.79 357.13 587.77C365.61 585.54 373.22 575.18 379.34 557.84L482 252.36C484.2 245.71 491.38 242.11 498.03 244.31C504.67 246.52 508.28 253.7 506.07 260.34L497.34 286.17L641.03 218.8C675.84 202.59 696.41 169.79 685.95 147.33C679.64 136.16 668.27 128.8 655.51 127.62C637.3 125.01 618.73 127.97 602.25 136.11L187.5 329.82C184.91 331 182.01 331.26 179.26 330.57L51.65 298.89L29.95 337.43L141.59 383.71ZM286.41 256.1L369.73 217.18L187.12 145.96C169.78 139.47 156.81 138.72 149.7 143.84C145.61 147.24 142.94 152.04 142.21 157.31L286.41 256.1Z" />
</svg>