<svg xmlns="http://www.w3.org/2000/svg" viewBox="0 0 78 78" width="78" height="78">
	<style>
		tspan { white-space:pre }
		.shp0 { fill: #221436 } 
	</style>
	<g id="Folder 1">
		<g id="Layer">
			<path id="Layer" fill-rule="evenodd" class="shp0" d="M77.83 38.92C77.83 60.37 60.37 77.83 38.92 77.83C20.07 77.83 4.31 64.36 0.75 46.54C0.68 46.48 0.62 46.43 0.55 46.37L0.69 46.2C0.24 43.84 0 41.4 0 38.92C0 17.46 17.46 0 38.92 0C60.37 0 77.83 17.46 77.83 38.92ZM57.98 8.56C58.84 14.47 59.96 27.53 56.02 41.14C60.75 40.57 72.01 37.87 72.06 25.25C69.2 18.34 64.24 12.51 57.98 8.56ZM38.92 3.06C37.26 3.06 35.64 3.18 34.05 3.4C38.25 9.88 39.57 16.75 40.74 22.87C42.47 31.91 43.76 38.56 52.88 40.98C57.68 25.24 55.21 10.03 54.56 6.66C49.83 4.35 44.52 3.06 38.92 3.06ZM9.8 18.03C12.79 22.1 26.58 39.57 49.04 50.45C50.16 48.29 51.11 46.09 51.91 43.89C41.08 40.92 39.45 32.42 37.74 23.45C36.56 17.27 35.22 10.3 30.76 4C22.19 6.01 14.79 11.09 9.8 18.03ZM3.06 38.92C3.06 40.95 3.24 42.93 3.56 44.87C12.79 52.19 20.48 52.84 27.92 53.44C33.29 53.88 38.84 54.34 44.75 57.27C45.77 55.91 46.7 54.53 47.54 53.12C25.96 42.61 12.21 26.24 8.02 20.75C4.87 26.08 3.06 32.29 3.06 38.92ZM26.2 72.43C33.22 68.96 38.64 64.58 42.79 59.73C37.64 57.31 32.78 56.91 27.67 56.49C20.57 55.91 13.26 55.3 4.65 49.48C7.91 60.04 15.93 68.53 26.2 72.43ZM38.92 74.77C42.78 74.77 46.49 74.15 49.98 73.02C51.34 70.97 51.79 69.02 51.29 67.22C50.45 64.17 47.24 62.06 45.6 61.15C41.7 65.85 36.7 70.16 30.32 73.72C33.07 74.41 35.95 74.77 38.92 74.77ZM67.72 60.25C61.49 58.85 55.68 56.83 50.33 54.43C49.47 55.88 48.53 57.31 47.51 58.71C49.64 59.96 53.17 62.53 54.23 66.39C54.69 68.02 54.64 69.69 54.13 71.37C59.53 68.83 64.19 64.99 67.72 60.25ZM74.77 38.92C74.77 36.49 74.53 34.11 74.07 31.82C73.26 34.13 72.02 36.17 70.31 37.91C65.22 43.1 57.69 44.11 55.01 44.3C54.14 46.8 53.09 49.29 51.82 51.75C57.26 54.17 63.18 56.18 69.56 57.52C72.86 52.1 74.77 45.73 74.77 38.92Z" />
		</g>
		<g id="Layer">
		</g>
		<g id="Layer">
		</g>
		<g id="Layer">
		</g>
		<g id="Layer">
		</g>
		<g id="Layer">
		</g>
		<g id="Layer">
		</g>
		<g id="Layer">
		</g>
		<g id="Layer">
		</g>
		<g id="Layer">
		</g>
		<g id="Layer">
		</g>
		<g id="Layer">
		</g>
		<g id="Layer">
		</g>
		<g id="Layer">
		</g>
		<g id="Layer">
		</g>
		<g id="Layer">
		</g>
	</g>
</svg>