<svg xmlns="http://www.w3.org/2000/svg" viewBox="0 0 480 480" width="480" height="480">
	<style>
		tspan { white-space:pre }
		.shp0 { fill: #221436 } 
	</style>
	<g id="Layer">
		<g id="Layer">
			<path id="Layer" fill-rule="evenodd" class="shp0" d="M464 136L464 200C464 204.42 460.42 208 456 208L336 208L336 328C336 332.42 332.42 336 328 336L264 336C259.58 336 256 332.42 256 328L256 208L144 208L144 456C144 460.42 140.42 464 136 464L72 464C67.58 464 64 460.42 64 456L64 208L8 208C3.58 208 0 204.42 0 200L0 136C0 131.58 3.58 128 8 128L256 128L256 8C256 3.58 259.58 0 264 0L328 0C332.42 0 336 3.58 336 8L336 128L456 128C460.42 128 464 131.58 464 136ZM64 144L16 144L16 192L64 192L64 144ZM128 400L80 400L80 448L128 448L128 400ZM128 336L80 336L80 384L128 384L128 336ZM128 272L80 272L80 320L128 320L128 272ZM128 208L80 208L80 256L128 256L128 208ZM128 144L80 144L80 192L128 192L128 144ZM192 144L144 144L144 192L192 192L192 144ZM256 144L208 144L208 192L256 192L256 144ZM320 272L272 272L272 320L320 320L320 272ZM320 208L272 208L272 256L320 256L320 208ZM320 144L272 144L272 192L320 192L320 144ZM320 80L272 80L272 128L320 128L320 80ZM320 16L272 16L272 64L320 64L320 16ZM384 144L336 144L336 192L384 192L384 144ZM448 144L400 144L400 192L448 192L448 144Z" />
		</g>
	</g>
	<g id="Layer">
		<g id="Layer">
			<path id="Layer" fill-rule="evenodd" class="shp0" d="M480 300.28C480 309.97 476.22 319.09 469.37 325.94L453.66 341.66L341.66 453.66C341.58 453.74 341.46 453.76 341.38 453.84C340.74 454.42 340.03 454.92 339.22 455.28C339.11 455.33 339.03 455.39 338.93 455.43C338.88 455.45 338.85 455.48 338.81 455.5L274.81 479.5C273.9 479.83 272.94 480 272 480C269.92 480 267.87 479.18 266.33 477.66C264.11 475.43 263.39 472.12 264.5 469.18L288.5 405.18C288.51 405.14 288.54 405.1 288.56 405.06C288.6 404.98 288.66 404.9 288.7 404.8C289.07 403.98 289.57 403.26 290.16 402.62C290.24 402.54 290.26 402.42 290.34 402.34L402.34 290.34L418.06 274.62C424.9 267.78 434.02 264 443.71 264C463.72 264 480 280.27 480 300.28ZM321.56 444.88L299.13 422.45L285.67 458.33L321.56 444.88ZM436.69 336L408 307.31L307.31 408L336 436.69L436.69 336ZM464 300.28C464 289.1 454.9 280 443.71 280C438.3 280 433.2 282.11 429.37 285.94L419.31 296L448 324.69L458.06 314.62C461.89 310.79 464 305.7 464 300.28Z" />
		</g>
	</g>
	<g id="Layer">
	</g>
	<g id="Layer">
	</g>
	<g id="Layer">
	</g>
	<g id="Layer">
	</g>
	<g id="Layer">
	</g>
	<g id="Layer">
	</g>
	<g id="Layer">
	</g>
	<g id="Layer">
	</g>
	<g id="Layer">
	</g>
	<g id="Layer">
	</g>
	<g id="Layer">
	</g>
	<g id="Layer">
	</g>
	<g id="Layer">
	</g>
	<g id="Layer">
	</g>
	<g id="Layer">
	</g>
</svg>