<svg xmlns="http://www.w3.org/2000/svg" viewBox="0 0 73 73" width="73" height="73">
	<style>
		tspan { white-space:pre }
		.shp0 { fill: #221436 } 
	</style>
	<g id="Layer">
		<path id="Layer" fill-rule="evenodd" class="shp0" d="M36.19 0C40.89 0 45.47 0.89 49.8 2.65C54.3 4.47 58.32 7.14 61.77 10.6C65.23 14.05 67.9 18.08 69.72 22.57C71.48 26.9 72.37 31.49 72.37 36.19C72.37 40.89 71.48 45.47 69.72 49.8C67.9 54.29 65.23 58.32 61.77 61.77C58.32 65.23 54.29 67.9 49.8 69.72C45.47 71.48 40.89 72.37 36.19 72.37C31.49 72.37 26.91 71.48 22.57 69.72C18.08 67.9 14.05 65.23 10.6 61.77C7.14 58.32 4.47 54.29 2.65 49.8C0.89 45.47 0 40.88 0 36.19C0 31.49 0.89 26.9 2.65 22.57C4.47 18.08 7.14 14.05 10.6 10.6C14.05 7.14 18.08 4.47 22.57 2.65C26.91 0.89 31.49 0 36.19 0ZM9.45 51.65L15.79 41.72C15.78 41.7 15.78 41.69 15.78 41.67C14.89 37.37 14.44 33.01 14.46 28.62C14.46 28.55 14.46 28.48 14.46 28.42L6.3 23.58C6.01 23.95 5.76 24.35 5.49 24.73C4.62 25.95 3.85 27.24 3.17 28.57C1.73 34.85 2.1 41.47 4.27 47.58C5.7 49.06 7.3 50.32 9.04 51.42C9.18 51.5 9.31 51.58 9.45 51.65ZM33 68.02L19.31 65.58C24.96 68.82 31.35 70.3 37.67 70.03C36.18 69.53 34.73 68.92 33.32 68.21C33.21 68.15 33.1 68.08 33 68.02ZM33.99 64.85C35.35 63.03 36.68 61.19 38 59.34L30.41 46.23C30.24 46.21 30.05 46.18 29.81 46.15C25.75 45.56 21.73 44.81 17.77 43.75C17.59 43.7 17.43 43.66 17.29 43.63L10.97 53.55C11.28 54.24 11.7 54.88 12.07 55.54C13.53 58.13 15.23 60.56 17.12 62.86L33.27 65.73C33.52 65.45 33.76 65.16 33.99 64.85ZM69.96 38.76C69.79 38.99 69.57 39.19 69.31 39.38C67.32 40.81 65.17 41.96 62.94 42.97L54.85 58.07C55.42 59.88 55.83 61.74 56.07 63.63C57.5 62.6 58.86 61.44 60.15 60.15C66.1 54.2 69.37 46.56 69.96 38.76ZM54.31 31.59L38.17 33.25C37.37 34.8 36.58 36.34 35.77 37.88C34.58 40.14 33.37 42.41 32.16 44.66L39.96 58.15C44.25 58.13 48.51 57.71 52.74 56.92C52.78 56.91 52.83 56.9 52.87 56.89L60.69 42.31C60.39 41.72 60.09 41.14 59.79 40.57C58.16 37.46 56.29 34.49 54.31 31.59ZM57.69 19.77L46.85 7.56C45.37 7.45 43.9 7.5 42.44 7.58C40.05 7.72 37.67 7.99 35.29 8.23C34.98 8.27 34.68 8.33 34.38 8.41L30 21.59C30.75 22.35 31.51 23.1 32.26 23.85C32.24 23.87 32.23 23.89 32.21 23.91C34.07 26 35.94 28.09 37.8 30.2C38.01 30.43 38.2 30.67 38.39 30.92L54.11 29.31C54.93 27.3 55.75 25.3 56.52 23.28C56.95 22.12 57.31 20.94 57.69 19.77ZM49.01 4.81C48.99 5.34 48.95 5.86 48.88 6.38L59.54 18.39C59.91 18.52 60.27 18.65 60.62 18.8C62.9 19.73 65.06 20.88 67.09 22.27C65.45 18.62 63.14 15.21 60.15 12.22C56.86 8.94 53.06 6.46 49.01 4.81ZM25.41 4.06C20.59 5.67 16.06 8.39 12.22 12.22C11.81 12.63 11.42 13.05 11.03 13.48C10.44 14.5 9.91 15.56 9.43 16.65C8.82 18.06 8.29 19.51 7.75 20.96C7.66 21.19 7.62 21.44 7.61 21.69L15.68 26.47C18.79 24.42 22.1 22.71 25.5 21.17C26.32 20.79 27.18 20.48 28.01 20.14C28.03 20.13 28.05 20.12 28.07 20.12L32.16 7.8C30.07 6.33 27.86 5.09 25.42 4.25C25.4 4.24 25.38 4.21 25.33 4.18C25.36 4.14 25.38 4.1 25.41 4.06Z" />
	</g>
	<g id="Layer">
	</g>
	<g id="Layer">
	</g>
	<g id="Layer">
	</g>
	<g id="Layer">
	</g>
	<g id="Layer">
	</g>
	<g id="Layer">
	</g>
	<g id="Layer">
	</g>
	<g id="Layer">
	</g>
	<g id="Layer">
	</g>
	<g id="Layer">
	</g>
	<g id="Layer">
	</g>
	<g id="Layer">
	</g>
	<g id="Layer">
	</g>
	<g id="Layer">
	</g>
	<g id="Layer">
	</g>
</svg>