<svg xmlns="http://www.w3.org/2000/svg" viewBox="0 0 513 513" width="513" height="513">
	<style>
		tspan { white-space:pre }
		.shp0 { fill: #221436 } 
	</style>
	<g id="Folder 1">
		<g id="Layer">
			<g id="Layer">
				<path id="Layer" fill-rule="evenodd" class="shp0" d="M512 137C512 137 512 390.67 512 392C512 425.09 485.08 452 452 452C418.92 452 392 425.09 392 392C392 358.92 418.92 332 452 332C462.93 332 473.17 334.95 482 340.07L482 216.84L300 268.35C300 268.35 300 450.44 300 452C300 485.09 273.08 512 240 512C206.92 512 180 485.09 180 452C180 418.92 206.92 392 240 392C250.93 392 261.17 394.95 270 400.07L270 197C270 190.29 274.46 184.4 280.92 182.57L492.92 122.57C497.44 121.29 502.3 122.2 506.05 125.04C509.8 127.87 512 132.3 512 137ZM270 452C270 435.46 256.54 422 240 422C223.46 422 210 435.46 210 452C210 468.54 223.46 482 240 482C256.54 482 270 468.54 270 452ZM482 392C482 375.46 468.54 362 452 362C435.46 362 422 375.46 422 392C422 408.54 435.46 422 452 422C468.54 422 482 408.54 482 392ZM482 156.84L300 208.35L300 237.17L482 185.66L482 156.84Z" />
			</g>
		</g>
		<g id="Layer">
			<g id="Layer">
				<path id="Layer" fill-rule="evenodd" class="shp0" d="M240 167C240 208.36 206.36 242 165 242C156.72 242 150 235.29 150 227C150 218.72 156.72 212 165 212C189.81 212 210 191.82 210 167C210 152.72 203.11 139.14 191.57 130.68C161.49 108.63 137.93 86.49 120 63.4L120 302C120 335.09 93.08 362 60 362C26.92 362 0 335.09 0 302C0 268.92 26.92 242 60 242C70.93 242 81.17 244.95 90 250.07L90 15C90 8.39 94.33 2.56 100.65 0.65C106.98 -1.27 113.81 1.18 117.48 6.68L134.77 32.61C151.64 57.92 176.03 82.08 209.31 106.48C228.53 120.57 240 143.19 240 167ZM90 302C90 285.46 76.54 272 60 272C43.46 272 30 285.46 30 302C30 318.54 43.46 332 60 332C76.54 332 90 318.54 90 302Z" />
			</g>
		</g>
		<g id="Layer">
		</g>
		<g id="Layer">
		</g>
		<g id="Layer">
		</g>
		<g id="Layer">
		</g>
		<g id="Layer">
		</g>
		<g id="Layer">
		</g>
		<g id="Layer">
		</g>
		<g id="Layer">
		</g>
		<g id="Layer">
		</g>
		<g id="Layer">
		</g>
		<g id="Layer">
		</g>
		<g id="Layer">
		</g>
		<g id="Layer">
		</g>
		<g id="Layer">
		</g>
		<g id="Layer">
		</g>
	</g>
</svg>