<svg xmlns="http://www.w3.org/2000/svg" viewBox="0 0 581 582" width="581" height="582">
	<style>
		tspan { white-space:pre }
		.shp0 { fill: #221436 } 
	</style>
	<g id="Folder 1">
		<path id="Layer" fill-rule="evenodd" class="shp0" d="M329.4 367.98C329.46 314.53 372.77 271.21 426.23 271.16C479.7 271.16 523.05 314.51 523.05 367.98C523.05 421.46 479.7 464.81 426.23 464.81C372.75 464.81 329.4 421.46 329.4 367.98ZM348.77 367.98C348.77 410.76 383.45 445.44 426.23 445.44C469.01 445.44 503.69 410.76 503.69 367.98C503.69 325.2 469.01 290.52 426.23 290.52C383.46 290.57 348.81 325.22 348.77 367.98Z" />
		<path id="Layer" class="shp0" d="M370.9 561.64L481.56 561.64L481.56 581L370.9 581L370.9 561.64Z" />
		<path id="Layer" class="shp0" d="M329.4 522.9L523.05 522.9L523.05 542.27L329.4 542.27L329.4 522.9Z" />
		<path id="Layer" class="shp0" d="M116.38 522.9L135.75 522.9L135.75 542.27L116.38 542.27L116.38 522.9Z" />
		<path id="Layer" class="shp0" d="M58.29 542.27L77.65 542.27L77.65 561.64L58.29 561.64L58.29 542.27Z" />
		<path id="Layer" fill-rule="evenodd" class="shp0" d="M117.35 468.42C127.35 473.25 137.15 478.44 146.64 484.17L581.15 484.17L581.15 503.54L175.33 503.54C199.19 521.18 220.78 541.69 239.63 564.61L224.65 576.88C192.78 538.08 152.79 506.75 107.49 485.09C100.45 496.58 93.19 507.86 85.58 518.72L69.72 507.63C139.99 405.75 182.32 287.23 192.5 163.89L184.16 155.59L173.02 166.67C165.11 282 120.75 391.83 46.34 480.3L31.49 467.88C33.5 465.48 35.43 463.02 37.37 460.59C27.8 458.37 18.18 456.41 8.5 455.03L2.85 454.48L4.79 435.2L10.84 435.81C24.15 437.75 37.35 440.45 50.36 443.86C106.27 369.09 141.21 280.75 151.6 187.97L67.74 271.33C65.93 273.13 63.48 274.14 60.92 274.14C60.39 274.15 59.87 274.11 59.35 274.02C56.28 273.52 53.64 271.57 52.25 268.79C34 232.36 41.15 188.33 69.99 159.54L77.91 151.62L9.87 151.62C8.82 151.62 7.79 151.45 6.8 151.12C1.72 149.43 -1.02 143.94 0.68 138.87C13.54 100.2 49.73 74.12 90.48 74.16L103.19 74.16L54.78 25.52C54.05 24.79 53.44 23.95 52.98 23.02C50.59 18.24 52.53 12.42 57.32 10.03C93.74 -8.22 137.77 -1.08 166.55 27.76L175.8 37.01C178.79 40.04 181.57 43.28 184.12 46.69C186.7 43.28 189.5 40.04 192.52 37.01L201.76 27.76C230.57 -1.1 274.62 -8.24 311.07 10.03C312 10.49 312.84 11.1 313.57 11.83C317.36 15.61 317.38 21.73 313.61 25.52L265.25 74.16L277.84 74.16C318.59 74.12 354.78 100.2 367.64 138.87C367.96 139.86 368.14 140.9 368.13 141.95C368.13 147.29 363.79 151.62 358.45 151.62L290.34 151.62L298.26 159.54C327.1 188.33 334.25 232.36 316 268.79C314.61 271.57 311.97 273.52 308.9 274.02C308.38 274.11 307.86 274.15 307.33 274.14C304.79 274.13 302.36 273.12 300.55 271.33L210.5 181.81C199.63 282.77 167.91 380.36 117.35 468.42ZM284.64 173.23L275.39 163.98C255.98 144.77 227.64 137.68 201.47 145.49L303.78 247.21C311.34 220.9 304.01 192.57 284.64 173.23ZM277.8 93.53L264.73 93.53C240.42 93.52 217.61 105.29 203.52 125.1C223.76 120.86 244.83 123.37 263.5 132.26L343.67 132.26C330.4 108.32 305.17 93.48 277.8 93.53ZM206.21 50.7C189.25 67.84 181.82 92.23 186.33 115.92C197.42 99.46 213.41 86.9 232.04 80.05L289.44 22.31C263.12 14.75 234.78 22.08 215.43 41.45L206.18 50.7L206.21 50.7ZM152.86 41.45C133.52 22.08 105.19 14.75 78.88 22.31L136.29 80.05C147.12 84.03 157.13 89.96 165.82 97.55C166.33 86.47 168.83 75.57 173.22 65.37C170.14 60.03 166.39 55.1 162.08 50.7L152.84 41.45L152.86 41.45ZM90.48 93.53C63.12 93.5 37.91 108.33 24.64 132.26L104.85 132.26C123.51 123.38 144.57 120.86 164.79 125.09C150.69 105.27 127.85 93.5 103.52 93.53L90.48 93.53ZM166.89 145.45C159.91 143.41 152.69 142.38 145.43 142.38C125.75 142.31 106.86 150.09 92.93 163.98L83.68 173.23C64.31 192.57 56.98 220.9 64.54 247.21L166.89 145.45Z" />
	</g>
</svg>