<svg xmlns="http://www.w3.org/2000/svg" viewBox="0 0 384 385" width="384" height="385">
	<style>
		tspan { white-space:pre }
		.shp0 { fill: #221436 } 
	</style>
	<path id="Layer" fill-rule="evenodd" class="shp0" d="M301.69 224.25C345.8 224.25 381.69 260.14 381.69 304.25C381.69 348.36 345.8 384.25 301.69 384.25C257.58 384.25 221.69 348.36 221.69 304.25C221.69 260.14 257.58 224.25 301.69 224.25ZM349.69 304.25C349.69 277.78 328.16 256.25 301.69 256.25C275.22 256.25 253.69 277.78 253.69 304.25C253.69 330.72 275.22 352.25 301.69 352.25C328.16 352.25 349.69 330.72 349.69 304.25Z" />
	<path id="Layer" fill-rule="evenodd" class="shp0" d="M93.69 0L185.27 160.25L2.13 160.25L93.69 0ZM130.13 128.25L93.69 64.5L57.26 128.25L130.13 128.25Z" />
	<path id="Layer" fill-rule="evenodd" class="shp0" d="M221.69 0.25L381.69 0.25L381.69 160.25L221.69 160.25L221.69 0.25ZM253.69 128.25L349.69 128.25L349.69 32.25L253.69 32.25L253.69 128.25Z" />
	<path id="Layer" class="shp0" d="M37.69 382.88L93.69 326.88L149.69 382.88L172.32 360.25L116.32 304.25L172.32 248.25L149.69 225.62L93.69 281.62L37.69 225.62L15.06 248.25L71.06 304.25L15.06 360.25L37.69 382.88Z" />
</svg>